<svg width="161" height="27" viewBox="0 0 161 27" fill="none" xmlns="http://www.w3.org/2000/svg">
<rect x="0.0445557" y="6.85062" width="9.68825" height="27.3032" transform="rotate(-45 0.0445557 6.85062)" fill="#1692C5"/>
<rect width="9.68825" height="27.3032" transform="matrix(-0.707107 -0.707107 -0.707107 0.707107 26.2013 6.85062)" fill="#1692C5"/>
<rect x="44.9628" y="6.85062" width="9.68825" height="27.3032" transform="rotate(-45 44.9628 6.85062)" fill="#1692C5"/>
<rect width="9.68825" height="27.3032" transform="matrix(-0.707107 -0.707107 -0.707107 0.707107 71.1195 6.85062)" fill="#1692C5"/>
<rect x="89.881" y="6.85062" width="9.68825" height="27.3032" transform="rotate(-45 89.881 6.85062)" fill="#1692C5"/>
<rect width="9.68825" height="27.3032" transform="matrix(-0.707107 -0.707107 -0.707107 0.707107 116.038 6.85062)" fill="#1692C5"/>
<rect x="134.799" y="6.85062" width="9.68825" height="27.3032" transform="rotate(-45 134.799 6.85062)" fill="#1692C5"/>
<rect width="9.68825" height="27.3032" transform="matrix(-0.707107 -0.707107 -0.707107 0.707107 160.956 6.85062)" fill="#1692C5"/>
</svg>
