<svg width="21" height="19" viewBox="0 0 21 19" fill="none" xmlns="http://www.w3.org/2000/svg">
<path d="M8.91888 11.6781L8.12857 10.5051C8.05029 10.3874 8.0652 10.233 8.16585 10.1337C8.2665 10.0344 8.42307 10.0197 8.54236 10.0969L9.64208 10.8213C9.72037 10.8728 9.82475 10.8213 9.82848 10.7257L10.1752 0.363181C10.1789 0.197704 10.3168 0.0690002 10.4846 0.0690002C10.6523 0.0690002 10.7865 0.197704 10.794 0.363181L11.1444 10.7294C11.1481 10.8213 11.2525 10.8728 11.3308 10.825L12.4305 10.1006C12.5498 10.0234 12.7064 10.0381 12.807 10.1373C12.9077 10.2366 12.9226 10.3911 12.8443 10.5087L12.0503 11.6781C12.0018 11.748 12.0428 11.8436 12.1248 11.8583L13.5265 12.1341C13.6645 12.1598 13.7651 12.2812 13.7651 12.4209C13.7651 12.5607 13.6645 12.682 13.5265 12.7078L12.1248 12.9909C12.0428 13.0056 12.0018 13.1012 12.0503 13.1711L12.8406 14.3441C12.9189 14.4618 12.904 14.6163 12.8033 14.7155C12.7027 14.8148 12.5461 14.8295 12.4268 14.7523L11.4464 14.1051C11.3644 14.0536 11.2562 14.1125 11.26 14.2081L11.3383 16.4696C13.5638 16.0724 15.2563 14.1492 15.2563 11.8362C15.2563 10.4757 14.671 9.24745 13.7353 8.39065C13.4743 8.15162 13.493 7.70668 13.7726 7.49339C15.0363 6.5226 15.8527 5.00756 15.8527 3.30499C15.8527 2.68721 15.7446 2.0915 15.547 1.53991C15.3755 1.06186 15.9273 0.436727 16.3448 0.730908C18.3392 2.12827 19.8005 4.21695 20.3634 6.64027C20.3821 6.71749 20.356 6.79839 20.3001 6.85723L19.2413 7.90157C19.0922 8.04866 19.1966 8.30239 19.4091 8.30239H20.3783C20.5051 8.30239 20.6095 8.398 20.6132 8.52303C20.6169 8.64438 20.6206 8.76573 20.6206 8.89075C20.6206 9.53428 20.5573 10.1668 20.4417 10.7772C20.4343 10.8213 20.4082 10.8654 20.3783 10.8985L18.6449 12.6085C18.4958 12.7556 18.6001 13.0093 18.8126 13.0093H19.3569C19.5284 13.0093 19.6439 13.1858 19.5694 13.3402C17.9105 16.6351 14.4659 18.8966 10.4846 18.8966C6.50322 18.8966 3.05867 16.6351 1.39977 13.3439C1.32149 13.1895 1.43705 13.013 1.61226 13.013H2.1528C2.36529 13.013 2.4734 12.7592 2.32056 12.6121L0.590827 10.9022C0.557276 10.8691 0.534909 10.8287 0.527453 10.7809C0.408161 10.1704 0.344788 9.53795 0.344788 8.89443C0.344788 8.77308 0.348515 8.64806 0.352243 8.52671C0.355971 8.40168 0.460351 8.30607 0.587099 8.30607H1.55634C1.76883 8.30607 1.87694 8.05234 1.7241 7.90525L0.665384 6.85723C0.609466 6.80207 0.583371 6.71749 0.60201 6.64027C1.16865 4.21695 2.62997 2.12827 4.62438 0.730908C5.04563 0.436727 5.59362 1.05818 5.42214 1.53991C5.22456 2.0915 5.11646 2.68721 5.11646 3.30499C5.11646 5.00756 5.93286 6.5226 7.1966 7.49339C7.47619 7.70668 7.49483 8.15162 7.23388 8.39065C6.29819 9.24745 5.71291 10.4757 5.71291 11.8362C5.71291 14.1492 7.40536 16.0724 9.6309 16.4696L9.70919 14.2081C9.71291 14.1125 9.60481 14.0536 9.52279 14.1051L8.54236 14.7523C8.42307 14.8295 8.2665 14.8148 8.16585 14.7155C8.0652 14.6163 8.05029 14.4618 8.12857 14.3441L8.91888 13.1711C8.96734 13.1012 8.92633 13.0056 8.84432 12.9909L7.44264 12.7151C7.30471 12.6894 7.20406 12.568 7.20406 12.4283C7.20406 12.2885 7.30471 12.1672 7.44264 12.1415L8.84432 11.8657C8.92633 11.851 8.96734 11.7553 8.91888 11.6855V11.6781Z" fill="black"/>
</svg>
