<svg width="19" height="22" viewBox="0 0 19 22" fill="none" xmlns="http://www.w3.org/2000/svg">
<path fill-rule="evenodd" clip-rule="evenodd" d="M6.56968 3.90666C6.60983 4.05781 6.75187 4.23588 6.83551 4.36164C7.03565 4.25516 7.98888 3.65974 8.16559 3.61231C8.23707 3.92104 8.24011 4.26526 8.27661 4.59754C8.33866 5.15992 8.59111 7.17169 8.59111 7.59913C8.49074 7.62269 8.24376 7.78516 8.1443 7.84513L7.26255 8.34968C7.12294 8.43045 6.97208 8.55101 6.80905 8.58925C6.74944 8.54917 6.68921 8.49716 6.62686 8.45126L4.03513 6.53649C3.91681 6.44714 3.73037 6.35382 3.64368 6.23449L4.60117 5.67273C4.68755 5.62561 4.85879 5.50903 4.947 5.48547C4.92601 5.40653 4.73135 5.07945 4.68116 5.00387L1.94161 6.50222L1.96747 7.68082C1.96808 7.87848 1.98845 7.86838 1.99454 8.02535C2.00336 8.26829 1.97112 8.59476 2.00214 8.82271C2.03256 9.04546 2.02161 9.3655 2.02161 9.63262C2.7455 9.63262 2.58004 9.72471 2.58004 8.91022C2.58004 8.6428 2.58004 8.37507 2.58004 8.10735C2.73334 8.14315 2.8988 8.23371 3.03263 8.2943L3.95544 8.70369C4.57532 8.97202 5.17816 9.26637 5.80229 9.52186C5.89201 9.55857 5.93308 9.58489 6.0228 9.6213C6.10432 9.65465 6.22416 9.67545 6.22416 9.76663V11.693C6.22416 11.7873 6.11527 11.7943 6.03862 11.8274C5.96562 11.8592 5.90388 11.8885 5.8175 11.9262C5.17451 12.2046 4.10965 12.6587 3.51107 12.9506C3.29877 13.0543 2.79295 13.3021 2.58004 13.352V12.1477C2.58247 11.7138 2.57183 11.8267 2.0213 11.8267L2.00549 12.6446C1.98176 12.8857 2.00275 13.1614 1.99545 13.4065C1.9915 13.5436 1.96716 13.5711 1.96716 13.7259C1.96656 14.225 1.94161 14.5116 1.94161 14.9578C2.15148 15.0991 2.39025 15.2041 2.60772 15.331C3.17376 15.6621 3.77143 15.9372 4.33655 16.2676C4.42202 16.3175 4.59722 16.42 4.70762 16.4295C4.78884 16.275 4.86518 16.1299 4.947 15.9745L4.30735 15.6012C4.14037 15.5051 3.80914 15.264 3.64368 15.2252V15.1716C3.77021 15.1377 6.08516 13.397 6.44802 13.1228C6.52527 13.0644 6.57667 13.0286 6.64937 12.9775C6.71993 12.9276 6.79141 12.8649 6.86228 12.8172C6.99337 12.9056 7.14089 12.9772 7.28262 13.0632C7.47181 13.1776 8.45759 13.7712 8.59111 13.8073C8.59111 14.1478 8.54184 14.4743 8.49591 14.8087C8.41865 15.3736 8.25137 17.4508 8.16559 17.821C8.00622 17.7837 7.22392 17.2935 7.00493 17.169C6.92828 17.1256 6.91855 17.1011 6.80905 17.0986C6.77073 17.2434 6.58184 17.4077 6.56968 17.5536C6.67431 17.5781 6.81878 17.6879 6.91034 17.7461L9.22954 19.1857C9.29889 19.1487 9.32748 19.1272 9.39439 19.0838C9.45583 19.0437 9.49507 19.025 9.55955 18.9825C10.319 18.4807 11.1074 18.0355 11.8629 17.5267C11.8267 17.3902 11.664 17.2513 11.6236 17.0986C11.4809 17.1017 11.3808 17.2033 11.2777 17.2593L10.267 17.848C10.267 17.4028 10.0982 16.3668 10.0535 15.842C10.0018 15.2353 9.8415 14.4251 9.8415 13.8345C10.4373 13.5172 11.0003 13.1354 11.5971 12.8178L11.9907 13.1173C12.6711 13.583 13.304 14.1225 13.9857 14.5891C14.1313 14.6888 14.7156 15.089 14.7889 15.1992C14.7126 15.3041 14.2944 15.5091 14.1596 15.5829C13.9802 15.6811 13.6997 15.898 13.5121 15.9482C13.523 16.081 13.6879 16.2695 13.725 16.4298C13.8664 16.3967 15.6077 15.4375 15.8176 15.324C16.0411 15.2028 16.3061 15.0743 16.5178 14.9314C16.4262 14.5361 16.5211 13.7868 16.4533 13.3373C16.4153 13.084 16.4642 12.7847 16.4268 12.5345C16.4071 12.4041 16.411 12.2894 16.4116 12.1486C16.4134 11.6943 16.4031 11.7836 15.8796 11.8277V13.3529C15.5965 13.2021 15.2613 13.0913 14.9754 12.9515C14.3832 12.6627 13.7587 12.4378 13.1666 12.1486C12.9783 12.0568 12.4451 11.7965 12.2355 11.7472V9.68677C12.3359 9.67851 12.5944 9.54236 12.6881 9.49983C12.7605 9.46709 12.8317 9.43741 12.912 9.40375L15.4237 8.29154C15.5627 8.23433 15.7455 8.15263 15.8796 8.08134V9.28534C15.8781 9.74705 15.8988 9.63323 16.3319 9.63323C16.46 9.63323 16.4119 9.38111 16.4116 9.25872L16.4375 8.32153C16.4366 8.13488 16.4661 8.06176 16.4651 7.86777C16.4633 7.52661 16.4916 7.28275 16.4913 6.95781C16.491 6.43093 16.6638 6.54536 15.9149 6.17299C15.2801 5.85723 14.6968 5.48976 14.062 5.17399C13.9394 5.11311 13.8597 5.06201 13.7518 5.00449C13.6885 5.09934 13.5398 5.36737 13.5124 5.48609C13.6964 5.584 14.7415 6.16014 14.8157 6.26203C14.6724 6.30058 13.6471 7.10407 13.4214 7.26745L12.0229 8.29552C11.953 8.34845 11.8997 8.38395 11.8213 8.44055C11.7489 8.49287 11.6896 8.5455 11.6239 8.58986C11.4663 8.55284 10.0733 7.72917 9.84181 7.57312C9.85428 7.42075 9.88469 7.26286 9.89595 7.09244C9.94096 6.41685 10.0857 5.33188 10.1657 4.60795C10.1977 4.32003 10.2673 3.91706 10.2673 3.61323C10.3473 3.6319 10.3677 3.64811 10.4325 3.68789L10.9377 3.98254C11.1579 4.11533 11.3726 4.24292 11.5974 4.36256C11.6759 4.21355 11.821 4.06821 11.8632 3.90758L9.27334 2.28531C9.20946 2.23697 9.2706 2.28409 9.23015 2.2486C8.77178 2.49246 8.34261 2.80944 7.89885 3.07686C7.67529 3.21149 7.47211 3.35224 7.24369 3.48809L6.57029 3.90758L6.56968 3.90666Z" fill="white"/>
<path fill-rule="evenodd" clip-rule="evenodd" d="M4.92055 18.9443C5.01119 18.9654 7.96183 20.6914 8.11755 20.7853C8.26112 20.8722 9.09998 21.4058 9.25632 21.4058C9.33358 21.4058 13.4081 18.9792 13.5389 18.944L13.3147 18.5273C13.253 18.4217 13.1106 18.2185 13.0866 18.1145C12.9622 18.1249 12.707 18.2929 12.5896 18.3639L9.22986 20.3086C9.18271 20.3086 8.39647 19.8301 8.28058 19.7652L5.65448 18.2329C5.56658 18.1806 5.48841 18.1172 5.37314 18.1145C5.34455 18.2384 5.21832 18.4095 5.1511 18.5334C5.09149 18.6435 4.94701 18.8445 4.92055 18.9443Z" fill="white"/>
<path fill-rule="evenodd" clip-rule="evenodd" d="M-6.10352e-05 16.0277C-6.10352e-05 16.1115 0.0930112 16.1289 0.23779 16.2164L1.04655 16.6873C1.23664 16.7917 1.40332 16.8878 1.58764 16.9994L4.30924 18.5697L4.78799 17.7402L3.84571 17.1897C3.18538 16.7969 1.59008 15.856 0.957731 15.5194C0.957731 14.1484 0.937657 12.6302 0.959252 11.2634C0.963815 10.9782 1.04229 11.051 0.000243123 11.051L-6.10352e-05 16.0277Z" fill="white"/>
<path fill-rule="evenodd" clip-rule="evenodd" d="M4.92055 2.46191C4.93606 2.52066 5.34455 3.23663 5.42606 3.2914L6.37838 2.75106C7.21299 2.2462 8.13459 1.74869 8.97893 1.24628C9.06926 1.19243 9.15078 1.15021 9.22955 1.09728C9.38407 1.17958 9.54831 1.27627 9.70313 1.3699C9.86616 1.46842 10.0085 1.5443 10.1758 1.64374C10.3394 1.74104 10.4824 1.82641 10.6484 1.91759C10.8239 2.01397 10.9626 2.10484 11.1366 2.20245C11.3146 2.3025 12.9339 3.27855 13.0866 3.2914C13.1219 3.13872 13.5084 2.60327 13.5389 2.48853L11.3955 1.24628C11.293 1.1857 9.28795 6.10352e-05 9.22986 6.10352e-05L4.92055 2.46191Z" fill="white"/>
<path fill-rule="evenodd" clip-rule="evenodd" d="M-6.10352e-05 5.3248V10.3284H0.957427V5.88656C1.5186 5.58793 2.27626 5.11215 2.8645 4.78139C3.19694 4.59444 3.50323 4.41392 3.82898 4.22636L4.78799 3.66582C4.70039 3.49937 4.35852 2.96116 4.33571 2.86295C4.20826 2.87366 3.9111 3.06887 3.78853 3.14199L2.1698 4.08224C1.98487 4.19484 1.81911 4.29092 1.63114 4.39648C1.44317 4.50204 0.128293 5.29451 -6.10352e-05 5.3248Z" fill="white"/>
<path fill-rule="evenodd" clip-rule="evenodd" d="M17.502 15.5194L14.1946 17.4367C14.0699 17.5052 13.809 17.6839 13.6982 17.7136C13.7107 17.8626 14.0742 18.425 14.1505 18.5697L14.6974 18.2637C14.8842 18.1499 15.0518 18.0599 15.2358 17.9489L17.6614 16.5359C17.7499 16.4878 17.8415 16.4358 17.9327 16.3808L18.3367 16.1452C18.3896 16.1127 18.4328 16.1014 18.4328 16.0277V11.0507C17.3196 11.0507 17.5017 10.9149 17.5017 11.5323L17.502 15.5194Z" fill="white"/>
<path fill-rule="evenodd" clip-rule="evenodd" d="M13.6982 3.66589C13.7624 3.76227 13.8126 3.75921 13.916 3.82132L17.2441 5.74466C17.3272 5.79117 17.416 5.86369 17.5017 5.88663V10.3284H18.4328V5.37841C18.4328 5.29886 18.2846 5.24746 18.2086 5.20248L14.177 2.86333C14.0937 2.92483 13.9912 3.14237 13.9264 3.25344C13.8646 3.359 13.7223 3.56186 13.6982 3.66589Z" fill="white"/>
</svg>
