<svg width="28" height="28" viewBox="0 0 28 28" fill="none" xmlns="http://www.w3.org/2000/svg">
<g clip-path="url(#clip0_129_27)">
<path fill-rule="evenodd" clip-rule="evenodd" d="M27.6412 13.8206C27.6412 6.19163 21.4496 0 13.8206 0C6.19163 0 0 6.19163 0 13.8206C0 21.4496 6.19163 27.6412 13.8206 27.6412C21.4496 27.6412 27.6412 21.4496 27.6412 13.8206ZM9.98769 5.34397H17.6167C18.9066 5.34397 20.0491 5.85993 20.8967 6.7076C21.7444 7.55526 22.2604 8.73462 22.2604 9.98769V17.6167C22.2604 18.9066 21.7444 20.0491 20.8967 20.8967C20.0491 21.7444 18.8697 22.2604 17.6167 22.2604H9.98769C8.69776 22.2604 7.55526 21.7444 6.7076 20.8967C5.85993 20.0491 5.34397 18.8697 5.34397 17.6167V9.98769C5.34397 8.69776 5.85993 7.55526 6.7076 6.7076C7.55526 5.85993 8.73462 5.34397 9.98769 5.34397ZM17.6167 6.67074H9.98769C9.06631 6.67074 8.2555 7.03929 7.62897 7.66583C7.03929 8.2555 6.63389 9.10317 6.63389 10.0245V17.6535C6.63389 18.5749 7.00244 19.3857 7.62897 20.0122C8.21865 20.6019 9.06631 21.0073 9.98769 21.0073H17.6167C18.538 21.0073 19.3488 20.6388 19.9754 20.0122C20.5651 19.4225 20.9705 18.5749 20.9705 17.6535V10.0245C20.9705 9.10317 20.6019 8.29236 19.9754 7.66583C19.3857 7.07615 18.538 6.67074 17.6167 6.67074ZM13.7837 9.7297C14.9262 9.7297 15.9582 10.172 16.6953 10.9459C17.4324 11.683 17.9115 12.715 17.9115 13.8575C17.9115 15 17.4692 16.0319 16.6953 16.769C15.9582 17.5061 14.9262 17.9852 13.7837 17.9852C12.6412 17.9852 11.6093 17.5429 10.8722 16.769C10.1351 16.0319 9.65599 15 9.65599 13.8575C9.65599 12.715 10.0983 11.683 10.8722 10.9459C11.6093 10.2088 12.6412 9.7297 13.7837 9.7297ZM15.7371 11.8673C15.2211 11.3513 14.5577 11.0565 13.7837 11.0565C13.0098 11.0565 12.3095 11.3513 11.8304 11.8673C11.3145 12.3833 11.0196 13.0466 11.0196 13.8206C11.0196 14.5946 11.3145 15.2948 11.8304 15.7739C12.3464 16.2899 13.0098 16.5847 13.7837 16.5847C14.5577 16.5847 15.2579 16.2899 15.7371 15.7739C16.253 15.2579 16.5479 14.5946 16.5479 13.8206C16.5479 13.0466 16.253 12.3464 15.7371 11.8673ZM18.3906 7.66583C18.796 7.66583 19.1646 7.8501 19.4594 8.10808C19.7174 8.36607 19.9017 8.77147 19.9017 9.17688C19.9017 9.58228 19.7174 9.95083 19.4594 10.2457C19.2014 10.5037 18.796 10.6879 18.3906 10.6879C17.9852 10.6879 17.6167 10.5037 17.3218 10.2457C17.0638 9.98769 16.8796 9.58228 16.8796 9.17688C16.8796 8.77147 17.0638 8.40292 17.3218 8.10808C17.5798 7.8501 17.9852 7.66583 18.3906 7.66583Z" fill="white"/>
</g>
<defs>
<clipPath id="clip0_129_27">
<rect width="27.6412" height="27.6412" fill="white"/>
</clipPath>
</defs>
</svg>
