<svg width="28" height="28" viewBox="0 0 28 28" fill="none" xmlns="http://www.w3.org/2000/svg">
<g clip-path="url(#clip0_86_697)">
<path fill-rule="evenodd" clip-rule="evenodd" d="M27.6412 13.8206C27.6412 6.19664 21.4446 0 13.8206 0C6.19664 0 0 6.19664 0 13.8206C0 21.4446 6.19664 27.6412 13.8206 27.6412C21.4446 27.6412 27.6412 21.4446 27.6412 13.8206ZM7.69358 5.77889C8.77277 5.77889 9.64309 6.64921 9.64309 7.7284C9.64309 8.80759 8.77277 9.6779 7.69358 9.6779C6.61439 9.6779 5.74408 8.80759 5.74408 7.7284C5.74408 6.64921 6.61439 5.77889 7.69358 5.77889ZM6.02258 11.1052H9.36459V21.8623H6.02258V11.1052ZM11.4533 11.1052H14.6561V12.5673H14.6909C15.1435 11.7318 16.2227 10.8267 17.8589 10.8267C21.2357 10.8267 21.8623 13.0547 21.8623 15.9442V21.8275H18.5203V16.6056C18.5203 15.3524 18.4855 13.751 16.7797 13.751C15.039 13.751 14.7605 15.1087 14.7605 16.5012V21.8275H11.4185V11.0704L11.4533 11.1052Z" fill="#1692C5"/>
</g>
<defs>
<clipPath id="clip0_86_697">
<rect width="27.6412" height="27.6412" fill="white"/>
</clipPath>
</defs>
</svg>
