<svg width="28" height="28" viewBox="0 0 28 28" fill="none" xmlns="http://www.w3.org/2000/svg">
<g clip-path="url(#clip0_86_688)">
<path fill-rule="evenodd" clip-rule="evenodd" d="M27.6412 13.8206C27.6412 6.17194 21.4693 0 13.8206 0C6.17194 0 0 6.17194 0 13.8206C0 21.4693 6.17194 27.6412 13.8206 27.6412C21.4693 27.6412 27.6412 21.4693 27.6412 13.8206ZM16.8119 7.42147C17.4177 7.38361 18.0236 7.42147 18.6294 7.42147H18.8945V4.31657C18.5915 4.27871 18.2508 4.24084 17.91 4.24084C17.3041 4.20298 16.6604 4.16511 16.0546 4.20298C15.108 4.20298 14.2371 4.46803 13.442 4.99813C12.5332 5.64183 12.0788 6.55059 11.8895 7.6108C11.8138 8.06517 11.7759 8.51955 11.7759 8.93606C11.7759 9.61762 11.7759 10.3371 11.7759 11.0186V11.2837H8.7846V14.7672H11.738V23.514H15.3731V14.7672H18.3265C18.478 13.5934 18.6294 12.4575 18.7809 11.2837C18.5537 11.2837 18.3265 11.2837 18.0993 11.2837C17.2663 11.2837 15.3352 11.2837 15.3352 11.2837C15.3352 11.2837 15.3352 9.54189 15.3731 8.82246C15.4109 7.80012 16.0167 7.4972 16.8498 7.45934L16.8119 7.42147Z" fill="#1692C5"/>
</g>
<defs>
<clipPath id="clip0_86_688">
<rect width="27.6412" height="27.6412" fill="white"/>
</clipPath>
</defs>
</svg>
