<svg width="28" height="28" viewBox="0 0 28 28" fill="none" xmlns="http://www.w3.org/2000/svg">
<g clip-path="url(#clip0_86_685)">
<path fill-rule="evenodd" clip-rule="evenodd" d="M27.6412 13.84C27.6412 6.22024 21.4598 0 13.8012 0C6.18136 0 -0.0388794 6.18136 -0.0388794 13.84C-0.0388794 21.4598 6.14249 27.6801 13.8012 27.6801C21.421 27.6801 27.6412 21.4987 27.6412 13.84ZM13.8012 4.04316C16.5225 4.04316 18.9717 5.1317 20.7212 6.92002C22.5095 8.70834 23.598 11.1576 23.598 13.84C23.598 16.5614 22.5095 19.0106 20.7212 20.7601C18.9329 22.5484 16.4836 23.6369 13.8012 23.6369C11.0798 23.6369 8.63058 22.5484 6.88114 20.7601C5.09282 18.9717 4.00428 16.5225 4.00428 13.84C4.00428 11.1187 5.09282 8.66946 6.88114 6.92002C8.66946 5.1317 11.1187 4.04316 13.8012 4.04316ZM11.4686 5.71485C12.8292 7.19215 14.0344 8.78609 15.0063 10.5355C16.678 9.758 18.0776 8.70834 19.1661 7.26991C17.6888 6.06473 15.8616 5.36496 13.8012 5.36496C12.9848 5.36496 12.2072 5.48159 11.4686 5.67597V5.71485ZM15.6284 11.7018C15.745 11.974 15.9005 12.2461 16.0171 12.5182C16.1337 12.7515 16.2115 12.9459 16.2893 13.1791C18.2331 12.7515 20.2158 12.8681 22.2762 13.5679C22.1985 11.5074 21.421 9.64137 20.138 8.20294C18.9717 9.71913 17.4555 10.8854 15.6284 11.7018ZM16.7946 14.4621C17.5333 16.4836 18.0387 18.6996 18.3497 21.0322C18.894 20.6823 19.3605 20.2935 19.7881 19.8659C21.0711 18.583 21.9652 16.8724 22.1985 14.9675C20.3324 14.2677 18.5052 14.1122 16.7946 14.4621ZM17.1057 21.6931C16.8335 19.2439 16.2893 16.9502 15.5117 14.8119C15.3951 14.8508 15.2785 14.8897 15.1618 14.9286C12.8681 15.8616 10.6522 17.7277 8.55283 20.5268C9.99126 21.6542 11.8185 22.354 13.8012 22.354C14.9675 22.354 16.056 22.1207 17.0668 21.6931H17.1057ZM15.0452 13.5679C14.9675 13.4124 14.8897 13.218 14.8119 13.0625C14.6953 12.7515 14.5398 12.4794 14.3843 12.2072L14.3066 12.2461C11.8185 13.1014 8.82496 13.3735 5.36495 13.1403C5.32608 13.3735 5.32608 13.6457 5.32608 13.8789C5.32608 16.0949 6.18136 18.1165 7.58092 19.6326C9.83575 16.678 12.1683 14.6953 14.6564 13.7234C14.7731 13.6845 14.8897 13.6457 15.0063 13.6068L15.0452 13.5679ZM13.7623 11.0021C12.7515 9.25261 11.5463 7.65867 10.1468 6.22024C9.29148 6.64788 8.51395 7.19215 7.81418 7.85305C6.76451 8.90272 5.9481 10.2634 5.59821 11.7796C8.78609 12.0128 11.5074 11.7407 13.7623 11.0021Z" fill="#1692C5"/>
</g>
<defs>
<clipPath id="clip0_86_685">
<rect width="27.6412" height="27.6412" fill="white"/>
</clipPath>
</defs>
</svg>
