<svg width="28" height="28" viewBox="0 0 28 28" fill="none" xmlns="http://www.w3.org/2000/svg">
<path fill-rule="evenodd" clip-rule="evenodd" d="M27.6013 13.8007C27.6013 6.18237 21.4189 0 13.8007 0C6.18237 0 0 6.18237 0 13.8007C0 21.4189 6.18237 27.6013 13.8007 27.6013C21.4189 27.6013 27.6013 21.4189 27.6013 13.8007ZM13.8007 3.90886C8.17669 3.90886 3.62965 8.45589 3.62965 14.0799C3.62965 18.587 6.54135 22.3762 10.5699 23.6925C11.0884 23.7722 11.2878 23.493 11.2878 23.2138C11.2878 22.9745 11.2878 22.1768 11.2878 21.3392C8.7351 21.8178 8.09692 20.701 7.8576 20.1426C7.73794 19.8634 7.2593 18.946 6.82056 18.7067C6.46158 18.5072 5.94306 18.0286 6.82056 18.0286C7.61828 18.0286 8.17669 18.7466 8.37612 19.0656C9.2935 20.5813 10.7294 20.1825 11.3277 19.9033C11.4075 19.2252 11.6867 18.7864 11.9659 18.5471C9.69237 18.3078 7.33908 17.4303 7.33908 13.5215C7.33908 12.4046 7.73794 11.4873 8.37612 10.8092C8.25646 10.5699 7.93737 9.53282 8.49578 8.1368C8.49578 8.1368 9.33339 7.8576 11.2878 9.17385C12.0855 8.93453 12.963 8.81487 13.8405 8.81487C14.718 8.81487 15.5557 8.93453 16.3933 9.17385C18.3477 7.8576 19.1853 8.1368 19.1853 8.1368C19.7437 9.53282 19.3847 10.5699 19.305 10.8092C19.9431 11.5271 20.342 12.4046 20.342 13.5215C20.342 17.4303 17.9887 18.2679 15.7152 18.5471C16.0742 18.8662 16.3933 19.4645 16.3933 20.4218C16.3933 21.7779 16.3933 22.8548 16.3933 23.2138C16.3933 23.493 16.5927 23.8121 17.1112 23.6925C21.1397 22.3363 24.0115 18.5471 24.0115 14.0799C24.0115 8.45589 19.4645 3.90886 13.8405 3.90886H13.8007Z" fill="#1692C5"/>
</svg>
