<svg width="67" height="67" viewBox="0 0 67 67" fill="none" xmlns="http://www.w3.org/2000/svg">
<path d="M15.7729 27.9865L21.2167 30.2896C21.868 28.9868 22.5427 27.7306 23.2406 26.5209C23.9385 25.3111 24.7062 24.1014 25.5437 22.8917L21.6354 22.124L15.7729 27.9865ZM25.6833 33.7792L33.6396 41.6656C35.5937 40.9212 37.6875 39.7813 39.9208 38.2459C42.1542 36.7104 44.2479 34.9656 46.2021 33.0115C49.459 29.7545 52.0069 26.1375 53.8457 22.1603C55.6844 18.1831 56.4866 14.5185 56.2521 11.1667C52.9021 10.934 49.2264 11.7371 45.225 13.5759C41.2236 15.4147 37.5944 17.9616 34.3375 21.2167C32.3833 23.1709 30.6385 25.2646 29.1031 27.4979C27.5677 29.7313 26.4278 31.825 25.6833 33.7792ZM38.1062 29.2427C37.0361 28.1726 36.501 26.8586 36.501 25.3009C36.501 23.7431 37.0361 22.4283 38.1062 21.3563C39.1764 20.2861 40.5024 19.7511 42.0844 19.7511C43.6663 19.7511 44.9923 20.2861 46.0625 21.3563C47.1326 22.4264 47.6677 23.7413 47.6677 25.3009C47.6677 26.8605 47.1326 28.1745 46.0625 29.2427C44.9923 30.3129 43.6663 30.8479 42.0844 30.8479C40.5024 30.8479 39.1764 30.3129 38.1062 29.2427ZM39.4323 51.6459L45.2948 45.7834L44.5271 41.875C43.3173 42.7125 42.1076 43.4681 40.8979 44.1419C39.6882 44.8156 38.4319 45.4791 37.1292 46.1323L39.4323 51.6459ZM61.2771 6.07189C62.1611 11.7018 61.6149 17.1809 59.6384 22.5092C57.6619 27.8376 54.2532 32.9194 49.4125 37.7545L50.8083 44.6667C50.9944 45.5972 50.9479 46.5045 50.6687 47.3886C50.3896 48.2726 49.9243 49.0403 49.2729 49.6917L37.5479 61.4167L31.6854 47.6677L19.751 35.7334L6.00207 29.8709L17.6573 18.1459C18.3087 17.4945 19.0885 17.0292 19.9967 16.75C20.9049 16.4709 21.8234 16.4243 22.7521 16.6104L29.6614 18.0063C34.5003 13.1674 39.5719 9.74759 44.876 7.7469C50.1802 5.7462 55.6472 5.18787 61.2771 6.07189ZM10.9573 44.5969C12.5857 42.9684 14.5753 42.143 16.9259 42.1207C19.2764 42.0984 21.265 42.9005 22.8916 44.5271C24.5201 46.1556 25.3232 48.1451 25.3009 50.4957C25.2785 52.8463 24.4522 54.8349 22.8219 56.4615C21.6587 57.6247 19.7166 58.625 16.9957 59.4625C14.2747 60.3 10.5171 61.0445 5.7229 61.6959C6.37429 56.9035 7.11873 53.1459 7.95623 50.4231C8.79373 47.7003 9.79408 45.7582 10.9573 44.5969ZM14.9354 48.5052C14.4701 48.9705 14.0048 49.8201 13.5396 51.054C13.0743 52.2879 12.7486 53.5321 12.5625 54.7865C13.8187 54.6004 15.0638 54.2858 16.2977 53.8429C17.5317 53.4 18.3803 52.9468 18.8437 52.4834C19.4021 51.925 19.7045 51.2504 19.751 50.4594C19.7976 49.6684 19.5417 48.9938 18.9833 48.4354C18.425 47.8771 17.7503 47.6091 16.9594 47.6314C16.1684 47.6538 15.4937 47.945 14.9354 48.5052Z" fill="#1692C5"/>
</svg>
