<svg width="166" height="39" viewBox="0 0 166 39" fill="none" xmlns="http://www.w3.org/2000/svg">
<path d="M53.0154 1.079C55.445 1.16444 57.5053 2.07855 59.203 3.82776C60.8829 5.57698 61.7276 7.6712 61.7276 10.1104V13.8249H54.5051V10.1104C54.5051 9.62838 54.3326 9.20599 53.9795 8.85292C53.6264 8.49986 53.196 8.31929 52.6865 8.31929C52.2561 8.31929 51.8772 8.45633 51.5483 8.72395C51.5048 8.75942 51.4629 8.80134 51.4274 8.85292H51.4016C51.3678 8.88839 51.3323 8.93031 51.2985 8.97384H51.2727C51.2388 9.02543 51.2114 9.06896 51.1953 9.10281C51.1953 9.10281 51.1953 9.11087 51.1953 9.12861H51.1775C51.1437 9.1802 51.1163 9.22373 51.1002 9.25758C51.1179 9.23985 51.1179 9.24952 51.1002 9.28338C51.0663 9.33497 51.0389 9.36882 51.0228 9.40429C51.0228 9.40429 51.0147 9.43009 50.997 9.48167L50.9712 9.58485C50.9712 9.58485 50.9631 9.62032 50.9454 9.68803C50.9277 9.73156 50.9196 9.75736 50.9196 9.75736C50.9196 9.77509 50.9115 9.80895 50.8938 9.86054C50.8938 9.91213 50.8938 9.93792 50.8938 9.93792C50.8938 10.0072 50.8938 10.0588 50.8938 10.1104V18.1165C50.8938 18.6163 51.0744 19.0467 51.4274 19.3998C51.7805 19.7367 52.2029 19.8996 52.6849 19.8996L53.0122 19.9254C55.4418 20.0108 57.5021 20.933 59.1997 22.6838C60.8796 24.433 61.7244 26.5272 61.7244 28.9665C61.7244 31.4573 60.8538 33.5854 59.0966 35.3442C57.3296 37.1112 55.1919 37.9979 52.6849 37.9979H43.6454V30.7592H52.6849C53.1928 30.7592 53.6248 30.5786 53.9779 30.2256C54.331 29.8725 54.5035 29.4501 54.5035 28.9681C54.5035 28.4602 54.331 28.0282 53.9779 27.6751C53.6248 27.3221 53.1944 27.1495 52.6849 27.1495H52.3319C49.9281 27.0464 47.8855 26.1323 46.1959 24.4008C44.5144 22.6516 43.6616 20.5654 43.6454 18.1359V10.0862C43.6632 7.59543 44.5499 5.47541 46.2991 3.7262C48.0483 1.97698 50.1683 1.09834 52.6591 1.08061H53.0122L53.0154 1.079ZM74.4816 23.5028V10.1024C74.4816 9.59291 74.301 9.16246 73.948 8.8094C73.5949 8.45633 73.1725 8.28383 72.6905 8.28383C72.1826 8.28383 71.7506 8.45633 71.3975 8.8094C71.0444 9.16246 70.8719 9.59291 70.8719 10.1024V23.5028H74.4832H74.4816ZM66.2772 3.68105C68.0442 1.91411 70.1803 1.02741 72.6889 1.02741C75.1797 1.02741 77.3077 1.91411 79.0747 3.68105C80.8416 5.448 81.7283 7.58575 81.7283 10.0927V37.9979H74.48V30.7495H70.8687V37.9979H63.6203V10.0927C63.6203 7.58575 64.5086 5.448 66.274 3.68105H66.2772ZM102.334 29.0954L103.591 37.9979H96.3427L95.111 29.2599L95.0594 28.9326C94.9901 28.4328 94.758 28.0024 94.3533 27.6477C93.9487 27.2946 93.5005 27.1141 93.0088 27.1141H91.4482V37.9979H84.1998V1.80287H91.4482V19.9092H92.4816C92.991 19.9092 93.4376 19.7287 93.8439 19.3756C94.2485 19.0226 94.4807 18.6002 94.55 18.1181L96.8506 1.80448H104.099L101.798 18.1262C101.531 19.9882 100.755 21.6859 99.472 23.2191C101.058 24.8828 101.997 26.7868 102.308 28.9149L102.334 29.0954ZM124.016 1.80287V29.7242C124.016 32.2231 123.145 34.3512 121.396 36.1181C119.621 37.885 117.483 38.7717 114.975 38.7717C112.484 38.7717 110.356 37.885 108.589 36.1181C106.822 34.3512 105.943 32.2231 105.943 29.7242V1.80287H113.182V29.6984C113.182 30.1901 113.363 30.6125 113.716 30.9656C114.069 31.3186 114.491 31.4911 114.973 31.4911C115.483 31.4911 115.913 31.3186 116.266 30.9656C116.619 30.6125 116.792 30.1901 116.792 29.6984V1.80287H124.016ZM135.659 19.9173C136.159 19.8996 136.589 19.7287 136.944 19.3917C137.297 19.0387 137.477 18.6082 137.477 18.0988V10.8601C137.477 10.3684 137.297 9.94598 136.944 9.59291C136.591 9.23985 136.16 9.06734 135.659 9.06734H133.866V19.9173H135.659ZM145.932 37.9979H138.709L137.477 29.2857L137.452 28.9584C137.366 28.4586 137.116 28.0282 136.72 27.6751C136.315 27.3221 135.867 27.1415 135.375 27.1415H133.868V37.9995H126.619V1.80448H135.702C138.185 1.82221 140.304 2.70891 142.071 4.45813C143.82 6.20734 144.69 8.32735 144.69 10.8182V18.1181C144.69 20.359 143.958 22.3243 142.493 24.0042C143.691 25.4858 144.415 27.1238 144.665 28.9084L144.69 29.1067L145.932 37.9995V37.9979ZM157.876 23.5028V10.1024C157.876 9.59291 157.696 9.16246 157.343 8.8094C156.99 8.45633 156.567 8.28383 156.085 8.28383C155.577 8.28383 155.145 8.45633 154.792 8.8094C154.439 9.16246 154.267 9.59291 154.267 10.1024V23.5028H157.878H157.876ZM149.672 3.68105C151.439 1.91411 153.575 1.02741 156.084 1.02741C158.574 1.02741 160.703 1.91411 162.469 3.68105C164.236 5.448 165.123 7.58575 165.123 10.0927V37.9979H157.875V30.7495H154.263V37.9979H147.015V10.0927C147.015 7.58575 147.903 5.448 149.669 3.68105H149.672Z" fill="#FEFEFE"/>
<path d="M61.6906 35.8376C61.6906 36.189 61.6583 36.5115 61.5938 36.8049C61.531 37.0983 61.4197 37.3466 61.2633 37.5513C61.1086 37.7577 60.9022 37.9173 60.6491 38.0285C60.396 38.1414 60.08 38.1978 59.7044 38.1978C59.5754 38.1978 59.4496 38.1881 59.3223 38.1672C59.1981 38.1494 59.0804 38.122 58.9757 38.0898C58.8709 38.0575 58.779 38.0221 58.7016 37.9866C58.6242 37.9495 58.5726 37.9157 58.5468 37.8883C58.521 37.8625 58.5017 37.8335 58.4855 37.806C58.4694 37.777 58.4549 37.7448 58.4436 37.7045C58.4324 37.6674 58.4259 37.6174 58.4195 37.561C58.4146 37.503 58.413 37.432 58.413 37.3498C58.413 37.2498 58.4146 37.1644 58.4227 37.0967C58.4291 37.0306 58.4436 36.9774 58.463 36.9403C58.4791 36.9 58.5033 36.8726 58.5259 36.8565C58.5517 36.8404 58.5823 36.8323 58.6194 36.8323C58.6564 36.8323 58.7032 36.8484 58.7596 36.8839C58.8161 36.9161 58.8854 36.9548 58.966 36.9935C59.045 37.0338 59.1401 37.0709 59.2449 37.1031C59.3497 37.1386 59.4722 37.1547 59.6157 37.1547C59.7705 37.1547 59.9043 37.1354 60.0139 37.0967C60.1235 37.0564 60.2154 36.9871 60.288 36.8807C60.3605 36.7759 60.4169 36.6308 60.454 36.4421C60.4895 36.2567 60.5072 36.0165 60.5072 35.7183V29.3566C60.5072 29.3244 60.5169 29.2954 60.5346 29.2679C60.554 29.2405 60.5846 29.2164 60.6314 29.197C60.6749 29.1809 60.7362 29.1664 60.8119 29.1567C60.8893 29.147 60.9828 29.1422 61.0973 29.1422C61.2069 29.1422 61.3004 29.147 61.3778 29.1567C61.4552 29.1664 61.5164 29.1809 61.56 29.197C61.6019 29.2164 61.6341 29.2389 61.6567 29.2679C61.6777 29.2954 61.6873 29.3244 61.6873 29.3566V35.8344L61.6906 35.8376ZM70.4463 37.6545C70.4818 37.7545 70.5027 37.8351 70.5043 37.8979C70.506 37.9592 70.4882 38.006 70.4528 38.0382C70.4157 38.0688 70.3544 38.0898 70.2706 38.0995C70.1868 38.1091 70.0739 38.114 69.9304 38.114C69.7902 38.114 69.6757 38.1108 69.5902 38.1043C69.5064 38.0979 69.4435 38.085 69.3984 38.0688C69.3533 38.0527 69.3242 38.0318 69.3017 38.0027C69.2807 37.9753 69.2614 37.9415 69.2436 37.8996L68.4827 35.7376H64.7908L64.0621 37.8722C64.0476 37.9141 64.0315 37.9495 64.0089 37.9802C63.9847 38.0108 63.9525 38.035 63.9073 38.0559C63.8654 38.0769 63.8025 38.0914 63.7219 38.0995C63.6429 38.1091 63.5397 38.114 63.4108 38.114C63.277 38.114 63.1689 38.1091 63.0851 38.0979C63.0013 38.0866 62.94 38.0656 62.9078 38.0318C62.8723 37.9995 62.8562 37.9528 62.8594 37.8915C62.861 37.8286 62.8804 37.748 62.9174 37.6481L65.8951 29.3953C65.9145 29.3437 65.9403 29.3018 65.9677 29.2712C65.9983 29.2389 66.0402 29.2131 66.0983 29.197C66.1547 29.1777 66.2272 29.1648 66.3175 29.1567C66.4062 29.1503 66.519 29.147 66.6577 29.147C66.8028 29.147 66.9253 29.1486 67.0204 29.1567C67.1172 29.1632 67.1945 29.1777 67.2526 29.197C67.3138 29.2131 67.3574 29.2405 67.3912 29.2744C67.4235 29.3099 67.4493 29.3518 67.4654 29.4018L70.4447 37.6561L70.4463 37.6545ZM66.6238 30.3707H66.6174L65.0874 34.7977H68.1748L66.6238 30.3707ZM77.3819 31.7926C77.3819 32.2376 77.3094 32.6374 77.1626 32.9969C77.0175 33.3532 76.8096 33.6579 76.5355 33.911C76.2631 34.1609 75.9309 34.356 75.5343 34.4946C75.1394 34.6333 74.667 34.701 74.1172 34.701H73.1096V37.8963C73.1096 37.9334 73.1 37.9673 73.079 37.9931C73.058 38.0205 73.0242 38.0414 72.9823 38.0592C72.9387 38.0753 72.8791 38.0898 72.8049 38.1011C72.7275 38.1124 72.634 38.1172 72.5196 38.1172C72.4051 38.1172 72.3116 38.1124 72.2342 38.1011C72.1601 38.0898 72.0988 38.0753 72.0536 38.0592C72.0069 38.043 71.9763 38.0221 71.9569 37.9931C71.9376 37.9673 71.9295 37.935 71.9295 37.8963V29.7C71.9295 29.5178 71.9779 29.3856 72.0746 29.3083C72.1713 29.2309 72.2761 29.1906 72.3954 29.1906H74.2946C74.4864 29.1906 74.6718 29.197 74.8476 29.2147C75.0233 29.2309 75.2313 29.2663 75.4699 29.3179C75.7117 29.3711 75.9551 29.4695 76.205 29.613C76.4533 29.758 76.6645 29.9354 76.8402 30.1466C77.0127 30.3578 77.1465 30.6012 77.24 30.8769C77.3335 31.1542 77.3803 31.4605 77.3803 31.7926H77.3819ZM76.1454 31.8861C76.1454 31.5234 76.0777 31.2203 75.9438 30.9769C75.8084 30.735 75.6424 30.5529 75.4408 30.4336C75.2409 30.3159 75.0346 30.2401 74.825 30.2095C74.6122 30.1772 74.4026 30.1611 74.2011 30.1611H73.1096V33.7305H74.1753C74.5316 33.7305 74.8282 33.6837 75.0636 33.5918C75.3006 33.4999 75.4973 33.3742 75.6585 33.2097C75.8181 33.0485 75.939 32.8534 76.0212 32.6261C76.1034 32.3988 76.1454 32.1521 76.1454 31.8861ZM84.8028 37.6561C84.8382 37.7561 84.8592 37.8367 84.8608 37.8996C84.8624 37.9608 84.8447 38.0076 84.8092 38.0398C84.7721 38.0704 84.7109 38.0914 84.627 38.1011C84.5432 38.1108 84.4303 38.1156 84.2869 38.1156C84.1466 38.1156 84.0321 38.1124 83.9467 38.1059C83.8629 38.0995 83.8 38.0866 83.7549 38.0704C83.7097 38.0543 83.6807 38.0334 83.6581 38.0043C83.6372 37.9769 83.6178 37.9431 83.6001 37.9012L82.8391 35.7392H79.1472L78.4185 37.8738C78.404 37.9157 78.3879 37.9511 78.3653 37.9818C78.3412 38.0124 78.3089 38.0366 78.2638 38.0575C78.2219 38.0785 78.159 38.093 78.0784 38.1011C77.9994 38.1108 77.8962 38.1156 77.7672 38.1156C77.6334 38.1156 77.5254 38.1108 77.4416 38.0995C77.3577 38.0882 77.2965 38.0672 77.2642 38.0334C77.2287 38.0011 77.2126 37.9544 77.2159 37.8931C77.2175 37.8302 77.2368 37.7496 77.2739 37.6497L80.2516 29.3969C80.2709 29.3453 80.2967 29.3034 80.3241 29.2728C80.3548 29.2405 80.3967 29.2147 80.4547 29.1986C80.5111 29.1793 80.5837 29.1664 80.674 29.1583C80.7626 29.1519 80.8755 29.1486 81.0141 29.1486C81.1592 29.1486 81.2818 29.1503 81.3769 29.1583C81.4736 29.1648 81.551 29.1793 81.609 29.1986C81.6703 29.2147 81.7138 29.2422 81.7477 29.276C81.7799 29.3115 81.8057 29.3534 81.8218 29.4034L84.8011 37.6577L84.8028 37.6561ZM80.9803 30.3723H80.9738L79.4439 34.7993H82.5312L80.9803 30.3723ZM93.0039 37.5787C93.0039 37.6706 92.9878 37.7496 92.9572 37.8125C92.9265 37.8754 92.8862 37.9302 92.8379 37.9689C92.7895 38.0108 92.7331 38.0398 92.6718 38.0575C92.6089 38.0753 92.5477 38.085 92.4864 38.085H92.0947C91.9737 38.085 91.8657 38.0737 91.7722 38.0479C91.6803 38.0221 91.5949 37.9769 91.5094 37.9125C91.4272 37.8464 91.3434 37.7577 91.2612 37.6448C91.1789 37.532 91.0903 37.3853 90.9968 37.2063L88.2835 32.1537C88.14 31.8942 87.9981 31.6201 87.8546 31.3348C87.7095 31.0494 87.5757 30.7705 87.4516 30.5013H87.4371C87.4467 30.8285 87.4532 31.1671 87.458 31.5105C87.4629 31.8523 87.4645 32.1941 87.4645 32.531V37.8931C87.4645 37.9253 87.4548 37.956 87.4371 37.9866C87.4161 38.014 87.3823 38.0382 87.3387 38.0543C87.292 38.0704 87.2339 38.085 87.1582 38.0962C87.084 38.1075 86.9873 38.1124 86.8728 38.1124C86.7551 38.1124 86.66 38.1075 86.5842 38.0962C86.5084 38.085 86.4504 38.0704 86.4085 38.0543C86.3633 38.0382 86.3343 38.014 86.3118 37.9866C86.2924 37.956 86.2844 37.9253 86.2844 37.8931V29.6968C86.2844 29.5146 86.3359 29.3824 86.4407 29.305C86.5439 29.2276 86.6568 29.1873 86.7809 29.1873H87.3613C87.4967 29.1873 87.6128 29.1986 87.7031 29.2228C87.7966 29.2438 87.8788 29.2841 87.9513 29.3357C88.0239 29.3872 88.0964 29.4614 88.1642 29.5549C88.2319 29.6484 88.3044 29.7661 88.3802 29.908L90.4647 33.8062C90.5937 34.0448 90.7178 34.277 90.8372 34.5043C90.9565 34.7316 91.0741 34.9541 91.1838 35.175C91.2934 35.3926 91.403 35.6103 91.511 35.8247C91.6207 36.0359 91.7271 36.2503 91.8351 36.4663H91.8415C91.8319 36.1036 91.8254 35.728 91.8238 35.3378C91.8206 34.946 91.8206 34.5688 91.8206 34.2093V29.3953C91.8206 29.3631 91.8302 29.3324 91.8496 29.3066C91.8706 29.2792 91.9028 29.2551 91.9479 29.2341C91.9947 29.2131 92.056 29.1986 92.1285 29.189C92.2043 29.1793 92.3026 29.1744 92.4235 29.1744C92.5283 29.1744 92.6202 29.1793 92.6976 29.189C92.775 29.1986 92.8363 29.2131 92.8782 29.2341C92.9217 29.2551 92.9523 29.2792 92.9749 29.3066C92.9926 29.3324 93.0023 29.3631 93.0023 29.3953V37.5771L93.0039 37.5787ZM100.305 37.5836C100.305 37.6674 100.301 37.7399 100.291 37.8012C100.281 37.8625 100.265 37.9141 100.244 37.956C100.22 37.9979 100.194 38.0269 100.165 38.0447C100.135 38.0624 100.102 38.0721 100.064 38.0721H95.7978C95.693 38.0721 95.5915 38.0366 95.498 37.9673C95.4044 37.8947 95.3577 37.7706 95.3577 37.5932V29.671C95.3577 29.4937 95.4044 29.3679 95.498 29.2954C95.5915 29.2244 95.693 29.1906 95.7978 29.1906H100.014C100.051 29.1906 100.085 29.2002 100.115 29.218C100.146 29.2373 100.168 29.2647 100.188 29.3066C100.204 29.3486 100.22 29.4001 100.233 29.4614C100.244 29.5227 100.249 29.6001 100.249 29.6903C100.249 29.7742 100.244 29.8451 100.233 29.908C100.222 29.9692 100.204 30.0208 100.188 30.0595C100.168 30.0966 100.143 30.1256 100.115 30.1434C100.085 30.1611 100.052 30.1708 100.014 30.1708H96.5378V32.9534H99.522C99.559 32.9534 99.5929 32.9631 99.6219 32.984C99.6509 33.005 99.6767 33.0324 99.6977 33.0711C99.7187 33.1082 99.7332 33.1581 99.7412 33.221C99.7509 33.2871 99.7557 33.3613 99.7557 33.4483C99.7557 33.5322 99.7509 33.6031 99.7412 33.6611C99.7315 33.7224 99.717 33.7692 99.6977 33.8062C99.6767 33.8433 99.6509 33.8691 99.6219 33.8852C99.5913 33.9013 99.559 33.9094 99.522 33.9094H96.5378V37.0854H100.064C100.101 37.0854 100.135 37.0951 100.165 37.1128C100.196 37.1322 100.222 37.1596 100.244 37.1983C100.265 37.2386 100.281 37.2885 100.291 37.3498C100.301 37.4111 100.305 37.4884 100.305 37.5803V37.5836ZM106.862 35.5812C106.862 35.9956 106.785 36.3664 106.633 36.692C106.479 37.0161 106.266 37.2918 105.993 37.5191C105.721 37.7432 105.4 37.9157 105.032 38.0301C104.662 38.1446 104.267 38.201 103.841 38.201C103.544 38.201 103.267 38.1752 103.014 38.1253C102.759 38.0737 102.532 38.0108 102.332 37.9382C102.134 37.8657 101.968 37.7883 101.831 37.7109C101.697 37.6319 101.602 37.5658 101.55 37.5094C101.495 37.4562 101.458 37.3853 101.432 37.3014C101.407 37.2176 101.395 37.1047 101.395 36.9645C101.395 36.8645 101.4 36.7791 101.41 36.7146C101.419 36.6485 101.434 36.5953 101.45 36.555C101.469 36.5131 101.492 36.4841 101.521 36.4679C101.548 36.4518 101.579 36.4438 101.618 36.4438C101.681 36.4438 101.773 36.4841 101.89 36.5598C102.005 36.6372 102.155 36.7211 102.34 36.8129C102.522 36.9016 102.743 36.9887 103.003 37.0677C103.261 37.1467 103.56 37.187 103.897 37.187C104.155 37.187 104.389 37.1515 104.602 37.0838C104.815 37.0161 104.997 36.9194 105.15 36.7936C105.305 36.6695 105.423 36.5147 105.503 36.3325C105.585 36.1503 105.627 35.9408 105.627 35.7102C105.627 35.4603 105.571 35.2443 105.456 35.0653C105.342 34.888 105.192 34.73 105.005 34.5946C104.815 34.4608 104.602 34.3366 104.363 34.2238C104.122 34.1109 103.876 33.9997 103.625 33.882C103.375 33.7643 103.128 33.6353 102.891 33.4935C102.653 33.3532 102.44 33.1872 102.253 32.9953C102.066 32.8035 101.913 32.5778 101.798 32.3182C101.681 32.0602 101.623 31.7507 101.623 31.3912C101.623 31.0188 101.69 30.6883 101.824 30.3981C101.96 30.1095 102.148 29.8661 102.387 29.6694C102.629 29.4727 102.914 29.3228 103.244 29.2196C103.577 29.1164 103.933 29.0648 104.318 29.0648C104.515 29.0648 104.712 29.0809 104.911 29.1164C105.11 29.1519 105.298 29.1954 105.474 29.255C105.65 29.3115 105.806 29.3776 105.945 29.4469C106.08 29.5178 106.172 29.5759 106.214 29.6178C106.259 29.6629 106.287 29.6952 106.301 29.721C106.316 29.7468 106.325 29.779 106.333 29.8177C106.343 29.858 106.35 29.9048 106.354 29.9612C106.359 30.0144 106.361 30.0853 106.361 30.174C106.361 30.2562 106.359 30.3288 106.351 30.3932C106.345 30.4561 106.332 30.5109 106.319 30.5545C106.308 30.5964 106.287 30.6286 106.262 30.6512C106.237 30.6722 106.209 30.6818 106.175 30.6818C106.124 30.6818 106.046 30.6496 105.938 30.5851C105.83 30.519 105.7 30.4497 105.543 30.3675C105.389 30.2885 105.203 30.2159 104.99 30.1498C104.779 30.0821 104.541 30.0482 104.275 30.0482C104.028 30.0482 103.814 30.0805 103.63 30.1466C103.448 30.2143 103.294 30.3014 103.175 30.411C103.057 30.5206 102.969 30.6496 102.908 30.7995C102.849 30.9511 102.819 31.1107 102.819 31.2799C102.819 31.5266 102.875 31.7394 102.99 31.9168C103.104 32.0941 103.257 32.2521 103.446 32.3907C103.638 32.5294 103.854 32.6535 104.097 32.768C104.339 32.8825 104.587 32.9969 104.841 33.1146C105.09 33.2323 105.339 33.358 105.581 33.4983C105.824 33.637 106.04 33.803 106.232 33.9932C106.422 34.1835 106.574 34.406 106.691 34.6655C106.809 34.9235 106.867 35.2282 106.867 35.5812H106.862ZM113.49 37.5836C113.49 37.6674 113.485 37.7399 113.475 37.8012C113.466 37.8625 113.45 37.9141 113.429 37.956C113.404 37.9979 113.379 38.0269 113.35 38.0447C113.319 38.0624 113.287 38.0721 113.248 38.0721H108.982C108.877 38.0721 108.776 38.0366 108.682 37.9673C108.589 37.8947 108.542 37.7706 108.542 37.5932V29.671C108.542 29.4937 108.589 29.3679 108.682 29.2954C108.776 29.2244 108.877 29.1906 108.982 29.1906H113.198C113.235 29.1906 113.269 29.2002 113.3 29.218C113.33 29.2373 113.353 29.2647 113.372 29.3066C113.388 29.3486 113.404 29.4001 113.417 29.4614C113.429 29.5227 113.433 29.6001 113.433 29.6903C113.433 29.7742 113.429 29.8451 113.417 29.908C113.406 29.9692 113.388 30.0208 113.372 30.0595C113.353 30.0966 113.327 30.1256 113.3 30.1434C113.269 30.1611 113.237 30.1708 113.198 30.1708H109.722V32.9534H112.706C112.743 32.9534 112.777 32.9631 112.806 32.984C112.835 33.005 112.861 33.0324 112.882 33.0711C112.903 33.1082 112.918 33.1581 112.926 33.221C112.935 33.2871 112.94 33.3613 112.94 33.4483C112.94 33.5322 112.935 33.6031 112.926 33.6611C112.916 33.7224 112.901 33.7692 112.882 33.8062C112.861 33.8433 112.835 33.8691 112.806 33.8852C112.776 33.9013 112.743 33.9094 112.706 33.9094H109.722V37.0854H113.248C113.285 37.0854 113.319 37.0951 113.35 37.1128C113.38 37.1322 113.406 37.1596 113.429 37.1983C113.45 37.2386 113.466 37.2885 113.475 37.3498C113.485 37.4111 113.49 37.4884 113.49 37.5803V37.5836ZM123.248 29.6968C123.248 29.7838 123.244 29.858 123.234 29.9209C123.224 29.9838 123.208 30.0353 123.187 30.0757C123.163 30.1127 123.139 30.1434 123.108 30.1595C123.078 30.1772 123.047 30.1869 123.015 30.1869H119.763V33.2081H122.836C122.868 33.2081 122.899 33.2146 122.929 33.2323C122.96 33.2484 122.986 33.2742 123.008 33.3113C123.029 33.3484 123.045 33.3983 123.055 33.458C123.065 33.5209 123.069 33.5983 123.069 33.695C123.069 33.7837 123.065 33.8594 123.055 33.9191C123.045 33.9803 123.029 34.0319 123.008 34.0706C122.984 34.1077 122.96 34.1383 122.929 34.1593C122.899 34.1803 122.868 34.1899 122.836 34.1899H119.763V37.8915C119.763 37.9237 119.753 37.9544 119.735 37.985C119.716 38.0124 119.687 38.0366 119.639 38.0527C119.594 38.0688 119.534 38.0833 119.461 38.0946C119.389 38.1059 119.292 38.1108 119.173 38.1108C119.063 38.1108 118.97 38.1059 118.892 38.0946C118.815 38.0833 118.752 38.0688 118.707 38.0527C118.66 38.0366 118.63 38.0124 118.61 37.985C118.591 37.9544 118.583 37.9237 118.583 37.8915V29.6678C118.583 29.4904 118.63 29.3647 118.723 29.2921C118.817 29.2212 118.918 29.1873 119.023 29.1873H123.015C123.047 29.1873 123.078 29.197 123.108 29.2147C123.139 29.2309 123.165 29.2615 123.187 29.3034C123.208 29.3437 123.224 29.3969 123.234 29.463C123.244 29.5291 123.248 29.6065 123.248 29.6936V29.6968ZM132.351 33.5289C132.351 34.248 132.267 34.8945 132.098 35.4716C131.927 36.0472 131.674 36.5373 131.338 36.9419C131.001 37.345 130.579 37.6561 130.071 37.8738C129.563 38.0914 128.97 38.1994 128.293 38.1994C127.625 38.1994 127.048 38.1011 126.561 37.9028C126.071 37.7029 125.672 37.4127 125.352 37.0338C125.035 36.655 124.798 36.1842 124.643 35.6215C124.485 35.0589 124.409 34.4124 124.409 33.6821C124.409 32.9824 124.493 32.344 124.662 31.7733C124.833 31.2026 125.086 30.7173 125.426 30.3159C125.763 29.9177 126.187 29.6081 126.695 29.3905C127.201 29.1728 127.793 29.0648 128.473 29.0648C129.126 29.0648 129.695 29.1632 130.181 29.3598C130.666 29.5565 131.071 29.8419 131.392 30.2191C131.714 30.5964 131.956 31.0623 132.112 31.6201C132.27 32.1747 132.349 32.8115 132.349 33.5289H132.351ZM131.1 33.6112C131.1 33.1098 131.055 32.6406 130.966 32.2102C130.877 31.7797 130.729 31.4041 130.521 31.0865C130.313 30.7705 130.036 30.5222 129.689 30.3433C129.341 30.1659 128.912 30.0757 128.401 30.0757C127.888 30.0757 127.459 30.1724 127.113 30.3642C126.766 30.5561 126.482 30.8124 126.266 31.13C126.049 31.4508 125.894 31.8233 125.8 32.2521C125.707 32.6777 125.66 33.1259 125.66 33.5966C125.66 34.119 125.705 34.5962 125.791 35.0347C125.878 35.4748 126.023 35.8521 126.229 36.1713C126.434 36.4873 126.71 36.7339 127.055 36.9097C127.4 37.0854 127.832 37.1741 128.353 37.1741C128.87 37.1741 129.304 37.0773 129.655 36.8855C130.007 36.6936 130.29 36.4357 130.505 36.1084C130.718 35.7828 130.872 35.4039 130.964 34.9751C131.056 34.5462 131.1 34.0916 131.1 33.6112ZM141.656 33.5289C141.656 34.248 141.572 34.8945 141.403 35.4716C141.232 36.0472 140.979 36.5373 140.644 36.9419C140.307 37.345 139.884 37.6561 139.377 37.8738C138.869 38.0914 138.276 38.1994 137.598 38.1994C136.931 38.1994 136.354 38.1011 135.867 37.9028C135.377 37.7029 134.977 37.4127 134.658 37.0338C134.34 36.655 134.103 36.1842 133.948 35.6215C133.79 35.0589 133.715 34.4124 133.715 33.6821C133.715 32.9824 133.798 32.344 133.968 31.7733C134.139 31.2026 134.392 30.7173 134.732 30.3159C135.069 29.9177 135.493 29.6081 136.001 29.3905C136.507 29.1728 137.099 29.0648 137.779 29.0648C138.432 29.0648 139.001 29.1632 139.486 29.3598C139.972 29.5565 140.376 29.8419 140.697 30.2191C141.019 30.5964 141.261 31.0623 141.418 31.6201C141.576 32.1747 141.655 32.8115 141.655 33.5289H141.656ZM140.405 33.6112C140.405 33.1098 140.36 32.6406 140.271 32.2102C140.183 31.7797 140.034 31.4041 139.826 31.0865C139.618 30.7705 139.341 30.5222 138.995 30.3433C138.646 30.1659 138.217 30.0757 137.706 30.0757C137.194 30.0757 136.765 30.1724 136.418 30.3642C136.072 30.5561 135.788 30.8124 135.572 31.13C135.354 31.4508 135.199 31.8233 135.106 32.2521C135.012 32.6777 134.966 33.1259 134.966 33.5966C134.966 34.119 135.011 34.5962 135.096 35.0347C135.183 35.4748 135.328 35.8521 135.535 36.1713C135.74 36.4873 136.015 36.7339 136.36 36.9097C136.705 37.0854 137.137 37.1741 137.658 37.1741C138.176 37.1741 138.609 37.0773 138.961 36.8855C139.312 36.6936 139.596 36.4357 139.81 36.1084C140.023 35.7828 140.178 35.4039 140.27 34.9751C140.362 34.5462 140.405 34.0916 140.405 33.6112ZM150.357 33.5015C150.357 34.2705 150.259 34.9428 150.062 35.5168C149.865 36.0939 149.577 36.5679 149.2 36.9451C148.822 37.3224 148.358 37.6061 147.81 37.7932C147.259 37.9802 146.606 38.0737 145.846 38.0737H143.965C143.86 38.0737 143.759 38.0382 143.665 37.9689C143.572 37.8963 143.525 37.7722 143.525 37.5949V29.6726C143.525 29.4953 143.572 29.3695 143.665 29.297C143.759 29.226 143.86 29.1922 143.965 29.1922H145.974C146.744 29.1922 147.394 29.2905 147.924 29.4888C148.453 29.6887 148.898 29.9757 149.259 30.3481C149.617 30.7205 149.89 31.1719 150.075 31.704C150.26 32.2327 150.354 32.8325 150.354 33.4999L150.357 33.5015ZM149.121 33.5531C149.121 33.0727 149.063 32.6261 148.943 32.2118C148.824 31.7975 148.637 31.4379 148.384 31.1365C148.129 30.835 147.807 30.5996 147.417 30.4287C147.028 30.2594 146.527 30.1756 145.912 30.1756H144.708V37.0902H145.924C146.493 37.0902 146.97 37.0193 147.362 36.8774C147.75 36.7372 148.076 36.5195 148.336 36.2261C148.598 35.9327 148.795 35.5651 148.924 35.1234C149.055 34.6833 149.121 34.1577 149.121 33.5547V33.5531Z" fill="#EF4950"/>
<path d="M29.4776 17.8763C29.1165 18.0182 28.7537 18.2358 28.3733 18.3196C28.2346 18.3503 28.1008 18.1697 28.225 18.0649C28.5248 17.8054 28.9101 17.6522 29.2439 17.441C29.5824 17.2282 29.9371 17.038 30.2885 16.8445C30.9657 16.4705 31.6492 16.1093 32.3312 15.7434C32.3489 15.695 32.3602 15.645 32.386 15.5967C32.544 15.2855 32.9116 15.2662 33.1905 15.3855C33.2066 15.3919 33.2211 15.3984 33.2372 15.4048C33.4484 15.4951 33.5226 15.7885 33.4742 15.9884C33.4694 16.0094 33.4645 16.0287 33.4597 16.0497C33.3807 16.3834 33.0405 16.5124 32.7358 16.4608C32.7084 16.456 32.6875 16.4447 32.6633 16.4366C31.9781 16.7542 31.2945 17.0783 30.6045 17.3894C30.2321 17.5571 29.8581 17.7296 29.476 17.8795L29.4776 17.8763ZM15.895 14.8422C17.1122 14.4794 18.5454 14.8664 19.0259 16.3657L19.0581 16.4866C19.0629 16.5043 19.0678 16.5237 19.0726 16.5414L19.2548 17.2089L19.4305 16.5398C19.4337 16.5221 19.4402 16.5027 19.445 16.485C19.445 16.485 19.4757 16.3641 19.4821 16.3544C19.5627 16.0884 19.6852 15.8288 19.8577 15.5902C21.9358 12.7012 26.6273 16.9493 23.461 19.2289L23.3578 19.2966C23.3417 19.3063 23.3272 19.3176 23.311 19.3273L22.7323 19.7061L23.4223 19.6658C23.44 19.6642 23.4594 19.6642 23.4771 19.6626C23.4771 19.6626 23.5996 19.6561 23.6125 19.6561C25.0006 19.8464 26.3661 21.1426 26.2452 22.6371C26.1275 24.1009 24.5153 25.0086 23.1434 24.7796C24.849 27.314 26.7579 30.3707 30.5384 36.4115C30.7867 36.3777 31.0285 36.3986 31.3284 36.2987C32.3634 35.9504 33.0147 34.7203 33.4178 33.7369C34.3528 31.4492 34.1094 28.723 32.6455 26.7094C32.1651 26.0484 31.5896 25.4987 30.956 25.0537L30.9334 25.0311L30.6448 24.8441C30.6013 24.8167 30.5578 24.7861 30.5142 24.7587L28.9037 23.714L30.8206 23.8156C30.8722 23.8204 30.9254 23.8204 30.9769 23.8236L31.3219 23.8414L31.3526 23.8365C32.1264 23.8494 32.9148 23.743 33.6935 23.4899C35.8119 22.8015 37.4273 21.0813 38.1286 18.9839C38.5493 17.7231 39.1104 15.2694 37.9899 14.2199C37.2129 13.4912 36.4567 14.028 36.1262 12.8447C35.8844 11.9773 36.2907 11.4147 35.4701 10.715C34.7382 10.0895 33.7064 9.78154 32.7761 9.63644C30.6545 9.30434 28.9682 9.91696 27.1367 10.8633L27.1093 10.8778L26.8417 11.0955C26.8014 11.1293 26.7595 11.16 26.7208 11.1938L25.2295 12.4029L25.9179 10.6118C25.9389 10.5634 25.955 10.5135 25.9743 10.4651C26.645 8.7965 26.5144 7.08598 25.9872 5.39641C25.5503 3.99865 24.6443 2.79274 23.4368 1.96892C22.6436 1.42723 21.6376 0.811376 20.6477 1.04837C20.0577 1.19024 19.3854 2.13014 18.7598 1.88186C18.6083 1.82221 18.4955 1.69807 18.3729 1.59167C16.0062 -0.46547 12.9044 3.89547 12.3466 5.81236C12.1612 6.45078 12.0709 7.115 12.0693 7.78083C12.0693 8.65624 12.2886 9.53649 12.5788 10.3974C13.8492 12.1015 14.9422 13.5637 15.8998 14.8389L15.895 14.8422ZM18.6035 5.77528C18.6164 5.76721 18.6293 5.75754 18.6422 5.74948C18.7873 5.65275 19.0194 5.65275 19.1661 5.74948C19.179 5.75754 19.1919 5.76721 19.2048 5.77528C19.4708 5.951 19.5595 6.28311 19.4208 6.55557C19.3999 6.83609 19.3628 7.14563 19.2306 7.38584C19.1806 7.93882 19.1468 8.49019 19.1129 9.04316C19.0774 9.62516 19.0081 10.2039 18.9839 10.7859C18.9791 10.8875 18.8308 10.8875 18.8259 10.7859C18.8018 10.2023 18.7324 9.62516 18.697 9.04316C18.6631 8.49019 18.6293 7.93721 18.5793 7.38584C18.4455 7.14563 18.41 6.83609 18.389 6.55557C18.252 6.28311 18.3407 5.951 18.6051 5.77528H18.6035Z" fill="#EF4950"/>
<path d="M22.3953 17.1202C22.4259 17.0847 22.463 17.0444 22.4856 17.0041C22.5259 16.9332 22.5162 16.8638 22.5049 16.7881C22.492 16.7075 22.3953 16.643 22.3179 16.6462C22.2518 16.6494 22.1906 16.6591 22.1374 16.6994C22.0987 16.73 22.068 16.7703 22.039 16.809C21.9826 16.8816 21.9278 16.9557 21.8746 17.0299C21.7762 17.1653 21.686 17.3088 21.5957 17.4507C21.507 17.5877 21.4183 17.7247 21.3345 17.865C21.291 17.9392 21.241 18.0117 21.2023 18.0891C21.1636 18.1665 21.133 18.2487 21.0943 18.3277C21.0604 18.3986 21.1459 18.476 21.2071 18.4148C21.2652 18.3567 21.3248 18.3035 21.3845 18.2487C21.4457 18.1907 21.5006 18.1197 21.557 18.0569C21.6682 17.9311 21.7795 17.8054 21.8923 17.6812C22.0019 17.5603 22.1148 17.4426 22.2244 17.3201C22.2825 17.2556 22.3405 17.1911 22.3953 17.125V17.1202Z" fill="#EF4950"/>
<path d="M23.8253 22.147C23.6448 22.0873 23.4642 22.0309 23.2836 21.968C23.1111 21.9084 22.9402 21.8423 22.7693 21.7762C22.5872 21.7068 22.4018 21.6456 22.226 21.5617C22.1712 21.5359 22.1341 21.6053 22.1793 21.6407C22.3373 21.7633 22.4872 21.8955 22.65 22.0099C22.8016 22.1163 22.958 22.2147 23.1176 22.3082C23.2772 22.4017 23.4368 22.492 23.6044 22.5693C23.6931 22.6113 23.7834 22.65 23.8737 22.6886C23.9817 22.7354 24.0929 22.7999 24.2122 22.7934C24.4105 22.7838 24.5669 22.5129 24.3896 22.3646C24.238 22.2372 24.0091 22.2066 23.8237 22.1453L23.8253 22.147Z" fill="#EF4950"/>
<path d="M19.516 25.0602C19.4579 24.8812 19.395 24.7039 19.3402 24.5233C19.2854 24.3395 19.2064 24.1573 19.171 23.9687C19.1629 23.9204 19.0855 23.9316 19.0855 23.98C19.0855 24.0848 19.0726 24.1831 19.0597 24.2863C19.0484 24.383 19.0549 24.483 19.0565 24.5797C19.0613 24.77 19.0662 24.9634 19.0936 25.1537C19.1194 25.3407 19.1548 25.5261 19.2048 25.7099C19.2532 25.8872 19.2951 26.2 19.4805 26.2854C19.5772 26.3306 19.7062 26.3177 19.7626 26.2113C19.861 26.0242 19.7417 25.8034 19.6852 25.6196C19.6288 25.4326 19.574 25.2456 19.516 25.0585V25.0602Z" fill="#FEFEFE"/>
<path d="M16.6576 21.4005C16.6028 21.4215 16.5479 21.4215 16.4915 21.4328C16.4448 21.4424 16.3964 21.465 16.3513 21.4811C16.2513 21.515 16.1513 21.5488 16.0514 21.5843C15.8644 21.6488 15.6758 21.702 15.4903 21.7713C15.3049 21.8406 15.1195 21.9116 14.9358 21.9809C14.8439 22.0164 14.7504 22.0502 14.6585 22.0857C14.594 22.1099 14.523 22.1244 14.4618 22.1566C14.4021 22.1889 14.3505 22.2372 14.2973 22.2792C14.1958 22.3581 14.1909 22.5355 14.2506 22.6387C14.3183 22.7547 14.4569 22.8047 14.5859 22.7741C14.7907 22.7273 14.968 22.5951 15.1502 22.4871C15.3275 22.3823 15.5065 22.2792 15.6838 22.1711C15.8547 22.068 16.0175 21.9535 16.1868 21.8471C16.2706 21.7939 16.3561 21.7407 16.4399 21.6875C16.4818 21.6617 16.5286 21.6375 16.5657 21.6085C16.6124 21.5714 16.6479 21.5279 16.6979 21.4972C16.7462 21.4666 16.7156 21.3796 16.6576 21.4005Z" fill="#FEFEFE"/>
<path d="M21.7311 26.3257C21.3232 27.3817 20.1915 28.054 18.9968 27.9347C17.6732 27.8025 16.7059 26.8013 16.6995 25.4713C16.6963 24.878 16.9413 24.346 17.1428 23.801C16.5592 25.3713 13.6396 24.8699 12.8432 23.8784C12.1757 23.0466 12.1306 21.8277 12.6884 20.9281C13.4155 19.7529 14.5762 19.711 15.8176 19.7045C14.9632 19.4175 14.2764 18.6759 14.0571 17.8005C13.8201 16.8526 14.1361 16.061 14.7117 15.5177C13.9459 14.3102 13.0801 12.9479 12.0967 11.4034L11.8436 11.1986C11.8049 11.1648 11.7614 11.1342 11.7227 11.1003L11.4551 10.8827L11.4277 10.8681C10.8086 10.4038 10.1073 10.0266 9.33021 9.77348C7.47298 9.16891 5.45937 9.45104 3.78271 10.428C3.15557 10.7924 1.89323 11.5501 1.69493 12.2965C1.46278 13.1736 2.28983 13.9539 1.60788 14.8857C1.42248 15.1404 1.16292 15.329 0.9227 15.5306C-0.115543 16.406 -0.146174 17.4781 0.203669 18.7082C0.70022 20.4558 1.91903 21.9583 3.48284 22.8708C5.39327 23.9865 7.5278 23.8929 9.66071 23.7075C9.169 23.7495 8.51445 24.5314 8.05014 24.7635C8.005 24.7893 7.96309 24.8199 7.91956 24.849L7.62937 25.036L7.60679 25.0585C6.97321 25.5035 6.39766 26.0533 5.91723 26.7143C4.90801 28.1023 4.51786 29.8403 4.72583 31.5331C4.8274 32.3504 5.03859 33.4306 5.52547 34.1174C6.08006 34.8993 6.68463 34.6381 7.40527 35.1218C7.97276 35.5022 7.64226 36.0439 7.85507 36.526C8.12592 37.1402 8.65794 37.3756 9.32215 37.6368C12.2789 38.8056 15.7257 37.7609 17.5894 35.1943C18.0698 34.5333 18.4148 33.8159 18.6422 33.0759L18.6567 33.0485L18.7453 32.7148C18.7582 32.6648 18.7744 32.6148 18.7856 32.5649L19.2806 30.7092L19.7755 32.5649C19.7868 32.6148 19.8029 32.6648 19.8158 32.7148L19.9045 33.0485L19.919 33.0759C20.1479 33.8159 20.4913 34.5333 20.9718 35.1943C22.1486 36.8146 23.9801 37.8867 25.9695 38.1188C26.745 38.2091 28.283 38.3252 28.9601 37.8415C29.2374 37.6448 29.3922 37.3353 29.5776 37.0596C25.5165 31.575 23.4368 28.7714 21.7311 26.3273V26.3257ZM13.9749 28.7762C13.9249 28.9358 13.8749 29.0954 13.8234 29.2551C13.7218 29.5743 13.6041 29.887 13.4912 30.203C13.272 30.8173 13.0543 31.4315 12.8351 32.0457C12.8464 32.0635 12.8593 32.0812 12.8706 32.1005C13.1914 32.5923 12.6142 33.1468 12.1225 32.9502C11.6179 32.747 11.6534 31.9619 12.1934 31.8265C12.2096 31.8233 12.2257 31.8184 12.2418 31.8136C12.4981 31.2106 12.7561 30.6061 13.0124 30.0015C13.1479 29.6823 13.2801 29.3582 13.4268 29.0422C13.4977 28.8907 13.567 28.7392 13.638 28.5892C13.7202 28.4199 13.825 28.2861 13.9233 28.1314C13.9797 28.0411 14.1087 28.1023 14.0894 28.2007C14.0523 28.3974 14.0346 28.5812 13.9733 28.7746L13.9749 28.7762ZM9.84289 17.6425C9.07065 17.5797 8.30326 17.3088 7.56004 17.0976C7.17634 16.988 6.79426 16.8767 6.41056 16.7639C6.22677 16.7091 6.04298 16.6559 5.85919 16.6027C5.71571 16.5608 5.55288 16.4995 5.3965 16.4753C5.28848 16.5156 5.16918 16.5269 5.04504 16.4963C5.01441 16.4882 4.98378 16.4818 4.95154 16.4737C4.68069 16.4092 4.53882 16.1561 4.51464 15.8998C4.49851 15.7353 4.58396 15.5967 4.68875 15.479C4.87738 15.2662 5.17402 15.2855 5.41101 15.3855L5.49806 15.4226C5.57706 15.4564 5.64316 15.5273 5.69475 15.6096C5.83662 15.6789 5.99139 15.7305 6.13649 15.7853C6.31705 15.8514 6.49762 15.9175 6.67657 15.9836C7.0377 16.1158 7.39882 16.248 7.75673 16.385C8.48221 16.6591 9.27379 16.8945 9.93317 17.3072C10.0767 17.3959 10.0299 17.6619 9.84128 17.6474L9.84289 17.6425Z" fill="#FEFEFE"/>
</svg>
