<svg width="28" height="28" viewBox="0 0 28 28" fill="none" xmlns="http://www.w3.org/2000/svg">
<g clip-path="url(#clip0_129_16)">
<path fill-rule="evenodd" clip-rule="evenodd" d="M27.6412 13.8206C27.6412 6.19421 21.447 0 13.8206 0C6.19421 0 0 6.19421 0 13.8206C0 21.447 6.19421 27.6412 13.8206 27.6412C21.447 27.6412 27.6412 21.447 27.6412 13.8206ZM11.7081 16.4343V10.8488C13.4984 11.7797 15.2886 12.7107 17.0788 13.6416C15.2886 14.5725 13.4984 15.5034 11.7081 16.4343ZM5.62133 18.2604C5.87196 18.9049 6.30162 19.3345 6.9461 19.5493C8.41409 20.0148 19.8716 20.0506 20.9815 19.4419C21.4112 19.2271 21.7334 18.9407 21.9125 18.511C22.6643 16.9356 22.6285 10.992 21.9841 9.34502C21.7334 8.73634 21.3038 8.30668 20.6951 8.09185C19.621 7.698 10.3834 7.6622 7.41156 7.98444C6.83869 8.05605 6.33742 8.30668 5.97938 8.73634C4.86943 10.0253 5.04846 16.6492 5.62133 18.2604Z" fill="white"/>
</g>
<defs>
<clipPath id="clip0_129_16">
<rect width="27.6412" height="27.6412" fill="white"/>
</clipPath>
</defs>
</svg>
